<svg width="108" height="107" viewBox="0 0 108 107" fill="none" xmlns="http://www.w3.org/2000/svg">
<ellipse cx="61.3557" cy="45.2743" rx="43.4573" ry="43.7563" fill="white"/>
<path d="M20.1439 27.9557C26.1336 21.3609 30.9253 13.6146 37.7038 7.8759M19.0472 35.7632C29.703 25.2349 37.9782 13.6136 41.107 5.07929M19.2991 39.0388C26.3523 26.4418 34.1271 19.0878 46.503 7.43094M19.1777 41.2017C29.0055 28.6517 38.764 19.272 48.1267 6.03414M17 46.524C32.8455 28.2482 46.0991 13.1092 55.1161 3.59151M18.571 47.647C28.2387 35.3146 38.4368 22.8863 56.3339 2.46541M19.9844 50.3537C31.3087 36.867 43.0748 18.7006 57.2074 1M20.6299 53.1553C37.4145 34.3986 52.6621 14.2739 60.2192 1.27248M20.8792 57.6164C28.3714 42.4811 39.9613 30.7177 62.7087 2.16342M22.0756 58.2719C34.8889 39.768 52.079 21.671 68.7609 2.1774M23.1075 61.9531C38.3452 40.0416 57.9056 18.7824 67.7341 3.05144M23.7389 64.0213C36.4991 45.3206 48.3765 30.2071 72.8581 1.92708M23.7693 65.9984C37.8276 44.7998 53.6743 28.656 71.614 2.20063M22.6631 66.793C40.2089 46.6758 53.9538 29.3256 74.0891 6.12629M26.2272 68.0313C36.4172 56.3507 45.8886 44.8889 79.0613 5.03345M27.6125 69.6947C44.7342 49.9303 65.9971 25.2872 81.9813 6.45798M29.8405 72.1668C48.6343 47.0181 65.4506 26.1063 82.8249 8.96218M28.3862 75.6678C49.0625 49.185 72.4246 21.164 82.4824 6.5913M31.9475 73.6977C44.2888 60.306 57.5644 44.5846 85.0157 7.8684M33.3076 76.631C53.3455 54.5042 70.0544 32.7374 87.1623 10.923M33.1482 76.5039C51.846 60.1931 69.0408 39.7839 88.269 12.7035M35.2974 78.1266C57.0636 55.8357 75.4879 32.3958 91.0323 12.1229M37.5105 79.541C60.2965 56.3704 80.3423 28.079 92.4878 13.9178M36.9561 81.8124C49.5417 64.8504 65.9218 49.3251 93.2715 13.9694M40.187 81.8304C54.5525 65.366 67.8053 50.2203 95.0868 15.3295M43.6913 84.0219C60.1227 65.2759 78.3188 40.8528 97.3096 20.7659M43.9436 87.5763C59.6992 67.9942 72.0606 48.932 97.6513 19.4111M46.6172 85.7054C57.6451 69.5402 74.5968 54.767 98.369 23.0067M47.1203 88.0173C63.1037 65.25 80.6842 47.9013 98.1971 22.6156M50.7333 87.5005C68.4541 66.397 88.7939 41.5164 101.372 26.0132M53.1108 86.8925C61.53 75.8113 75.1887 63.356 101.708 29.578M53.7583 88.5469C69.0834 70.3214 87.6644 47.5802 103.064 29.2022M57.8446 89.4783C74.2035 66.767 88.4249 47.3854 102.191 34.8776M59.0278 90.6884C73.6345 74.3336 86.3172 59.2807 102.621 35.639M60.9552 91C73.3668 77.264 81.1897 63.7451 105.509 39.0244M65.1029 88.8472C80.395 73.2804 93.5152 59.0051 103.937 38.1505M66.9987 89.1032C77.5272 72.6726 89.0854 57.997 103.546 44.7703M70.0651 87.4579C84.9037 72.3303 95.6884 57.0054 104.008 46.3777M74.9795 87.7527C84.7305 72.6428 95.7531 59.9095 107 51.3779M78.2582 87.207C86.6317 75.2485 98.6843 62.8801 105.812 52.2048M82.2248 82.6991C90.6194 73.935 95.7768 67.0038 103.995 61.0468M86.0715 80.4248C91.2098 75.8517 97.068 67.948 102.628 63.7043M30.4999 14.4881V14.4881Z" stroke="url(#paint0_linear_426_220)" stroke-width="0.5" stroke-linecap="round"/>
<g filter="url(#filter0_d_426_220)">
<g filter="url(#filter1_d_426_220)">
<circle cx="49.9863" cy="57.3838" r="36.9863" fill="white"/>
</g>
</g>
<path d="M40.9379 52.3726C37.5976 53.1759 34.3978 54.4793 31.4469 56.2386C30.2211 57.0068 29.0038 58.9 28.0509 60.0166C26.9595 61.3557 25.8639 62.6947 24.7599 64.0212L24.5668 63.6014C26.0579 63.7244 27.5363 63.9701 28.987 64.336C30.4283 64.6999 31.8333 65.1944 33.1847 65.8136C32.4795 65.5786 31.7743 65.3603 31.0607 65.1672C28.754 64.5529 26.3857 64.1995 24.0001 64.1136L24.3234 63.6938C26.1745 61.3766 28.1013 58.8538 30.0532 56.6248C31.6945 55.1305 33.8689 54.4001 35.8838 53.6235C37.5198 53.0535 39.2066 52.6416 40.9211 52.3935L40.9379 52.3726Z" fill="#454545"/>
<path d="M53.1532 67.1147C54.5301 72.7397 47.2974 79.1874 42.7513 81.4667L42.3021 81.7018C42.7483 79.2912 42.2557 76.8012 40.9253 74.742C41.6662 75.6383 42.2187 76.6748 42.5498 77.7895C42.8901 78.9174 43.0042 80.1015 42.8856 81.2736L42.5078 81.0134C46.7937 78.6039 53.8878 72.5256 53.1532 67.1147Z" fill="#454545"/>
<path d="M30.607 66.7624L41.4581 50.1772C42.5537 48.4981 43.6577 46.819 45.1059 45.459C47.7756 42.9404 51.4318 41.681 55.0796 41.2613C58.7274 40.8415 62.4088 41.2403 66.0566 41.6265L65.3388 50.8824C65.1164 53.7033 64.8813 56.5871 63.7269 59.1645C61.7288 63.6351 57.3422 66.4727 53.1865 69.0585L43.9515 74.8052C42.2724 75.8378 40.3331 76.904 38.4945 76.287C37.4115 75.9176 36.6013 75.0276 35.8541 74.1629C33.8952 71.8934 32.0468 69.5328 30.3089 67.0814" fill="url(#paint1_linear_426_220)"/>
<path d="M56.5944 49.9883C55.2427 48.8675 53.3454 49.3334 51.7796 49.6441C50.9632 49.7913 50.1893 50.1166 49.5129 50.5969C48.0814 51.6632 48.6062 53.8166 49.9704 54.7023C51.9895 56.1001 54.7852 56.2303 57.0268 55.3236C58.4792 54.8576 58.4918 53.8166 58.051 52.5447C57.732 51.3735 56.9638 50.3787 55.7423 50.1058C54.5609 49.8027 53.3265 49.7684 52.1301 50.0052C50.9337 50.242 49.8055 50.744 48.8286 51.4743C48.1843 51.944 47.625 52.5204 47.1747 53.1785C47.0887 53.3191 47.0377 53.4782 47.026 53.6426C47.0143 53.8069 47.0423 53.9717 47.1076 54.123C49.2064 57.6365 55.8766 58.2158 58.815 55.4705C59.3691 54.8912 59.2599 54.2112 58.9493 53.5185C58.3315 52.0439 57.2138 50.8341 55.7926 50.1016C53.0096 48.6114 49.1057 49.5559 47.3972 52.2005C46.5577 53.5269 47.3217 55.2228 48.5684 55.9784C49.8949 56.8179 51.6159 56.9858 53.1859 56.9229C54.7558 56.8599 56.3971 56.3772 57.5473 55.3236C58.114 54.8114 58.6093 54.1398 58.5673 53.5101C58.5253 52.8805 57.8915 52.2592 57.4004 51.6212C56.9729 50.9985 56.3349 50.5512 55.6037 50.3619C54.8401 50.2528 54.0611 50.347 53.3454 50.6347C51.8342 51.1972 50.2601 51.894 49.2862 53.0988C49.06 53.3264 48.9128 53.6207 48.8664 53.9383C48.9413 54.2523 49.1316 54.5265 49.3995 54.7065C50.0001 55.2194 50.7005 55.6025 51.4564 55.8315C53.5553 56.5535 59.5874 56.3268 58.794 52.9183C58.1308 49.686 54.6341 47.7719 51.4606 48.0783C49.962 48.2378 48.1024 48.5317 47.0866 49.728C45.1095 52.6664 48.0856 56.2303 51.0576 56.9565C52.6539 57.3962 54.3194 57.5273 55.9647 57.3427C56.7788 57.2896 57.5753 57.0816 58.3113 56.7298C58.8644 56.4743 59.3303 56.0621 59.6512 55.5442C59.972 55.0263 60.1338 54.4256 60.1163 53.8166C59.9064 52.5992 58.9199 51.6464 58.2609 50.6305C57.266 49.3124 56.0529 48.0573 54.4536 47.4906C56.0655 48.0153 57.329 49.2495 58.3616 50.555C59.2809 51.873 60.8803 53.3213 60.1415 55.0759C58.9283 58.262 53.6812 58.0605 50.9065 57.3636C47.6365 56.6039 44.4294 52.6622 46.629 49.4174C47.8128 48.0069 49.685 47.7383 51.385 47.5074C54.844 47.1338 58.6723 49.1865 59.453 52.7881C59.58 53.2513 59.5832 53.7396 59.4624 54.2044C59.3416 54.6692 59.101 55.0942 58.7646 55.4369C56.3887 57.4938 51.2087 57.4182 48.8748 55.29C48.2452 54.8282 47.8002 53.9299 48.2703 53.1911C49.3156 51.4323 51.2423 50.5801 53.0641 49.8917C53.9116 49.5508 54.835 49.4435 55.7381 49.5811C57.1401 49.8455 58.0006 51.0629 58.7772 52.1375C59.814 53.464 59.197 54.9668 58.0384 55.9616C56.0361 57.7708 53.1271 58.0605 50.5665 57.6407C48.3711 57.3469 45.949 55.63 46.2009 53.1659C47.0404 49.1151 52.7829 47.5536 56.0991 49.4384C57.6831 50.2548 58.9275 51.6048 59.6126 53.2499C60.5151 55.1514 59.3439 56.3562 57.6522 57.095C55.9539 57.8548 54.0721 58.1076 52.2334 57.8231C50.3948 57.5387 48.6774 56.729 47.2881 55.4915C45.3865 53.6948 46.8431 52.2508 48.4592 51.0167C50.8687 49.2872 54.4242 48.6324 57.0645 50.2024C58.1476 51.0167 58.5757 52.4061 58.7184 53.7032C58.8108 54.7485 58.072 55.4285 57.1527 55.7139C54.76 56.6248 51.8846 56.4359 49.7815 54.929C48.3333 53.9341 47.8086 51.6128 49.3827 50.471C50.0919 49.9805 50.9026 49.6562 51.7544 49.5223C53.3328 49.2453 55.2679 48.8297 56.5944 49.9883Z" fill="white"/>
<path d="M32.8112 66.6069C34.973 63.7945 37.1474 61.003 38.9482 57.9638C40.749 54.9247 42.0209 51.5707 44.3003 48.7834C49.1067 42.9654 57.3132 42.5876 64.315 42.3945C62.8458 45.7863 63.1732 49.5684 62.9213 53.191C62.7073 57.0319 61.4773 60.2222 58.371 62.6317C55.5544 64.8481 52.4942 66.7035 49.4761 68.6008C46.4579 70.4982 43.3096 72.1899 40.1446 73.8396C43.2789 72.1353 46.3572 70.3303 49.3795 68.4245C52.3641 66.5062 55.4158 64.6088 58.1947 62.384C61.1919 59.9955 62.3924 56.927 62.5687 53.1491C62.808 49.602 62.4764 45.9038 63.828 42.5163L64.0253 42.8059C60.4993 42.8899 56.948 43.041 53.5311 43.8553C44.4976 46.0507 43.2635 50.9033 39.1245 58.0688C37.2523 61.0869 35.0276 63.849 32.828 66.6069H32.8112Z" fill="#454545"/>
<defs>
<filter id="filter0_d_426_220" x="3.13699" y="3.13699" width="93.6986" height="109.726" filterUnits="userSpaceOnUse" color-interpolation-filters="sRGB">
<feFlood flood-opacity="0" result="BackgroundImageFix"/>
<feColorMatrix in="SourceAlpha" type="matrix" values="0 0 0 0 0 0 0 0 0 0 0 0 0 0 0 0 0 0 127 0" result="hardAlpha"/>
<feOffset/>
<feGaussianBlur stdDeviation="4.93151"/>
<feComposite in2="hardAlpha" operator="out"/>
<feColorMatrix type="matrix" values="0 0 0 0 0 0 0 0 0 0 0 0 0 0 0 0 0 0 0.05 0"/>
<feBlend mode="normal" in2="BackgroundImageFix" result="effect1_dropShadow_426_220"/>
<feBlend mode="normal" in="SourceGraphic" in2="effect1_dropShadow_426_220" result="shape"/>
</filter>
<filter id="filter1_d_426_220" x="0.671233" y="8.06869" width="98.6301" height="98.6302" filterUnits="userSpaceOnUse" color-interpolation-filters="sRGB">
<feFlood flood-opacity="0" result="BackgroundImageFix"/>
<feColorMatrix in="SourceAlpha" type="matrix" values="0 0 0 0 0 0 0 0 0 0 0 0 0 0 0 0 0 0 127 0" result="hardAlpha"/>
<feOffset/>
<feGaussianBlur stdDeviation="6.16438"/>
<feComposite in2="hardAlpha" operator="out"/>
<feColorMatrix type="matrix" values="0 0 0 0 0 0 0 0 0 0 0 0 0 0 0 0 0 0 0.08 0"/>
<feBlend mode="normal" in2="BackgroundImageFix" result="effect1_dropShadow_426_220"/>
<feBlend mode="normal" in="SourceGraphic" in2="effect1_dropShadow_426_220" result="shape"/>
</filter>
<linearGradient id="paint0_linear_426_220" x1="26.2475" y1="12.88" x2="114.411" y2="58.8844" gradientUnits="userSpaceOnUse">
<stop stop-color="#3CA0D2"/>
<stop offset="1" stop-color="#48DCA6"/>
</linearGradient>
<linearGradient id="paint1_linear_426_220" x1="33.982" y1="45.7531" x2="68.8475" y2="64.1316" gradientUnits="userSpaceOnUse">
<stop stop-color="#3CA0D2"/>
<stop offset="1" stop-color="#48DCA6"/>
</linearGradient>
</defs>
</svg>
