<svg width="108" height="107" viewBox="0 0 108 107" fill="none" xmlns="http://www.w3.org/2000/svg">
<ellipse cx="61.3557" cy="45.2743" rx="43.4573" ry="43.7563" fill="white"/>
<path d="M20.1439 27.9557C26.1336 21.3609 30.9253 13.6146 37.7038 7.8759M19.0472 35.7632C29.703 25.2349 37.9782 13.6136 41.107 5.07929M19.2991 39.0388C26.3523 26.4418 34.1271 19.0878 46.503 7.43094M19.1777 41.2017C29.0055 28.6517 38.764 19.272 48.1267 6.03414M17 46.524C32.8455 28.2482 46.0991 13.1092 55.1161 3.59151M18.571 47.647C28.2387 35.3146 38.4368 22.8863 56.3339 2.46541M19.9844 50.3537C31.3087 36.867 43.0748 18.7006 57.2074 1M20.6299 53.1553C37.4145 34.3986 52.6621 14.2739 60.2192 1.27248M20.8792 57.6164C28.3714 42.4811 39.9613 30.7177 62.7087 2.16342M22.0756 58.2719C34.8889 39.768 52.079 21.671 68.7609 2.1774M23.1075 61.9531C38.3452 40.0416 57.9056 18.7824 67.7341 3.05144M23.7389 64.0213C36.4991 45.3206 48.3765 30.2071 72.8581 1.92708M23.7693 65.9984C37.8276 44.7998 53.6743 28.656 71.614 2.20063M22.6631 66.793C40.2089 46.6758 53.9538 29.3256 74.0891 6.12629M26.2272 68.0313C36.4172 56.3507 45.8886 44.8889 79.0613 5.03345M27.6125 69.6947C44.7342 49.9303 65.9971 25.2872 81.9813 6.45798M29.8405 72.1668C48.6343 47.0181 65.4506 26.1063 82.8249 8.96218M28.3862 75.6678C49.0625 49.185 72.4246 21.164 82.4824 6.5913M31.9475 73.6977C44.2888 60.306 57.5644 44.5846 85.0157 7.8684M33.3076 76.631C53.3455 54.5042 70.0544 32.7374 87.1623 10.923M33.1482 76.5039C51.846 60.1931 69.0408 39.7839 88.269 12.7035M35.2974 78.1266C57.0636 55.8357 75.4879 32.3958 91.0323 12.1229M37.5105 79.541C60.2965 56.3704 80.3423 28.079 92.4878 13.9178M36.9561 81.8124C49.5417 64.8504 65.9218 49.3251 93.2715 13.9694M40.187 81.8304C54.5525 65.366 67.8053 50.2203 95.0868 15.3295M43.6913 84.0219C60.1227 65.2759 78.3188 40.8528 97.3096 20.7659M43.9436 87.5763C59.6992 67.9942 72.0606 48.932 97.6513 19.4111M46.6172 85.7054C57.6451 69.5402 74.5968 54.767 98.369 23.0067M47.1203 88.0173C63.1037 65.25 80.6842 47.9013 98.1971 22.6156M50.7333 87.5005C68.4541 66.397 88.7939 41.5164 101.372 26.0132M53.1108 86.8925C61.53 75.8113 75.1887 63.356 101.708 29.578M53.7583 88.5469C69.0834 70.3214 87.6644 47.5802 103.064 29.2022M57.8446 89.4783C74.2035 66.767 88.4249 47.3854 102.191 34.8776M59.0278 90.6884C73.6345 74.3336 86.3172 59.2807 102.621 35.639M60.9552 91C73.3668 77.264 81.1897 63.7451 105.509 39.0244M65.1029 88.8472C80.395 73.2804 93.5152 59.0051 103.937 38.1505M66.9987 89.1032C77.5272 72.6726 89.0854 57.997 103.546 44.7703M70.0651 87.4579C84.9037 72.3303 95.6884 57.0054 104.008 46.3777M74.9795 87.7527C84.7305 72.6428 95.7531 59.9095 107 51.3779M78.2582 87.207C86.6317 75.2485 98.6843 62.8801 105.812 52.2048M82.2248 82.6991C90.6194 73.935 95.7768 67.0038 103.995 61.0468M86.0715 80.4248C91.2098 75.8517 97.068 67.948 102.628 63.7043M30.4999 14.4881V14.4881Z" stroke="url(#paint0_linear_2_109)" stroke-width="0.5" stroke-linecap="round"/>
<g filter="url(#filter0_d_2_109)">
<g filter="url(#filter1_d_2_109)">
<circle cx="49.9863" cy="57.3838" r="36.9863" fill="white"/>
</g>
</g>
<path d="M35.8547 62.6708L34.4921 68.9267L41.6057 65.2511C41.6057 65.2511 55.2276 70.8499 67.3347 61.5941C79.4418 52.3383 64.1566 41.7534 64.1566 41.7534C64.1566 41.7534 59.7682 36.4034 46.2985 38.8984C32.8289 41.3933 30.8611 48.3509 30.8611 48.3509C30.8611 48.3509 27.5308 56.4149 35.8547 62.6708Z" fill="url(#paint1_linear_2_109)"/>
<path d="M40.9375 52.3422C40.7902 52.3937 40.6629 52.4902 40.5735 52.6182C40.4842 52.7462 40.4375 52.899 40.44 53.055C40.8855 53.1256 41.6281 53.3966 42.1701 53.2072C42.3044 53.175 42.4308 53.1159 42.5416 53.0335C42.6524 52.951 42.7453 52.847 42.8147 52.7276C42.8841 52.6082 42.9286 52.4759 42.9454 52.3389C42.9623 52.2018 42.9511 52.0627 42.9127 51.9301C42.4226 51.1356 41.2865 51.9524 40.7927 52.383C39.6789 53.5562 41.4127 54.0575 42.3743 53.7122C42.6414 53.6506 42.8937 53.5371 43.1169 53.378C43.9968 52.7209 43.2839 51.195 42.2592 51.1504C41.7329 51.1296 41.2157 51.2917 40.7954 51.6091C40.375 51.9266 40.0776 52.3798 39.9536 52.8917C39.872 53.9683 41.2011 54.5178 42.1441 54.1354C43.1057 53.8347 44.1082 52.9251 43.9596 51.8558C43.94 51.6193 43.8515 51.3937 43.705 51.207C43.5585 51.0202 43.3605 50.8805 43.1354 50.8051C42.185 50.5675 40.789 50.872 39.9202 51.3286C39.0515 51.7853 38.6319 53.0847 39.6009 53.7382C40.3145 54.1736 41.139 54.3927 41.9746 54.369C42.8102 54.3452 43.6209 54.0797 44.3086 53.6045C46.4063 51.6479 42.4523 49.8324 40.7333 50.1591C39.0255 50.2297 37.6555 52.5427 39.1034 53.7976C40.4808 54.8037 42.7753 55.0339 44.0302 53.6936C43.6377 54.1703 43.1008 54.5065 42.5006 54.6515C41.1157 54.9708 39.0218 54.6515 38.3201 53.2555C38.1503 52.7919 38.1182 52.289 38.2275 51.8075C38.3369 51.326 38.583 50.8864 38.9364 50.5415C40.6776 48.5181 46.4991 50.2631 45.363 53.2778C44.2492 55.5054 39.6826 55.7022 38.476 53.4894C37.6703 51.5625 39.7346 50.2854 41.3682 50.1034C42.2667 49.9141 43.5958 49.8621 44.2529 50.768C45.8457 53.0439 42.5117 55.8581 40.2989 54.6515C39.9721 54.4775 39.7029 54.2121 39.5243 53.8878C39.3456 53.5634 39.2652 53.1941 39.2928 52.8248C39.5749 50.7049 43.0055 49.4834 43.8854 51.8335C44.0318 52.1647 44.0627 52.5354 43.9732 52.8861C43.8836 53.2369 43.6788 53.5474 43.3916 53.7679C42.4374 54.451 40.1022 54.6106 40.0502 53.0253C40.0687 51.9672 42.5859 50.5787 43.128 51.8447C43.174 52.0042 43.1868 52.1715 43.1656 52.3361C43.1444 52.5008 43.0897 52.6593 43.0048 52.802C42.9199 52.9447 42.8066 53.0684 42.672 53.1656C42.5374 53.2627 42.3843 53.3313 42.2221 53.3669C41.5972 53.4493 40.9618 53.3501 40.3917 53.081C40.3864 52.9124 40.4387 52.747 40.5399 52.612C40.6411 52.477 40.7853 52.3806 40.9486 52.3385L40.9375 52.3422Z" fill="white"/>
<path d="M50.2684 52.3421C50.1211 52.3936 49.9937 52.4901 49.9044 52.6181C49.8151 52.7461 49.7684 52.8989 49.7709 53.0549C50.2164 53.1255 50.9589 53.3965 51.501 53.2072C51.6353 53.175 51.7617 53.1158 51.8725 53.0334C51.9832 52.9509 52.0762 52.8469 52.1456 52.7275C52.215 52.6081 52.2595 52.4758 52.2763 52.3388C52.2931 52.2017 52.282 52.0626 52.2435 51.93C51.7535 51.1355 50.6174 51.9523 50.1236 52.3829C49.0098 53.5561 50.7436 54.0574 51.7052 53.7121C51.9722 53.6505 52.2246 53.537 52.4477 53.3779C53.3276 52.7208 52.6148 51.1949 51.5901 51.1503C51.0638 51.1295 50.5465 51.2916 50.1262 51.609C49.7059 51.9265 49.4085 52.3797 49.2845 52.8916C49.2028 53.9683 50.532 54.5177 51.475 54.1353C52.4366 53.8346 53.4353 52.925 53.2905 51.8557C53.2706 51.6188 53.1815 51.3929 53.0343 51.2061C52.8871 51.0193 52.6883 50.8798 52.4626 50.805C51.5158 50.5674 50.1199 50.8719 49.2474 51.3285C48.3749 51.7852 47.9591 53.0846 48.9318 53.7381C50.2647 54.6328 52.4143 54.5734 53.6544 53.5933C55.7557 51.6367 51.798 49.8212 50.0827 50.1479C48.3749 50.2184 47.0049 52.5314 48.4529 53.7863C49.8303 54.7925 52.121 55.0227 53.3796 53.6824C52.9871 54.1591 52.4502 54.4953 51.85 54.6403C50.4614 54.9595 48.3712 54.6403 47.6695 53.2443C47.4988 52.7808 47.4662 52.2777 47.5756 51.796C47.6849 51.3143 47.9316 50.8746 48.2858 50.5303C50.027 48.5069 55.8486 50.2518 54.7125 53.2666C53.5987 55.4942 49.032 55.6909 47.8254 53.4782C47.0198 51.5513 49.084 50.2741 50.7176 50.0922C51.6161 49.9029 52.9452 49.8509 53.6024 50.7568C55.184 53.0401 51.8426 55.8543 49.6149 54.6477C49.2885 54.4745 49.0197 54.2097 48.8416 53.8859C48.6635 53.562 48.5839 53.1932 48.6125 52.8247C48.8947 50.7048 52.3029 49.4833 53.2051 51.8335C53.3515 52.1646 53.3824 52.5353 53.2929 52.886C53.2033 53.2368 52.9985 53.5474 52.7113 53.7678C51.7572 54.4509 49.4219 54.6106 49.3699 53.0252C49.3699 51.9671 51.9057 50.5786 52.4477 51.8446C52.4937 52.0041 52.5065 52.1714 52.4853 52.336C52.4641 52.5007 52.4094 52.6593 52.3245 52.8019C52.2396 52.9446 52.1263 53.0683 51.9917 53.1655C51.8571 53.2626 51.704 53.3312 51.5418 53.3668C50.9169 53.4492 50.2815 53.35 49.7115 53.0809C49.7061 52.9123 49.7584 52.7469 49.8596 52.6119C49.9608 52.4769 50.105 52.3805 50.2684 52.3384V52.3421Z" fill="white"/>
<path d="M60.1024 52.3421C59.9551 52.3936 59.8278 52.4901 59.7385 52.6181C59.6492 52.7461 59.6024 52.8989 59.6049 53.0549C60.0542 53.1255 60.793 53.3965 61.3351 53.2072C61.4694 53.175 61.5957 53.1158 61.7065 53.0334C61.8173 52.9509 61.9102 52.8469 61.9796 52.7275C62.0491 52.6081 62.0935 52.4758 62.1104 52.3388C62.1272 52.2017 62.1161 52.0626 62.0776 51.93C61.5875 51.1355 60.4514 51.9523 59.9576 52.3829C58.8438 53.5561 60.5777 54.0574 61.5392 53.7121C61.8063 53.6505 62.0586 53.537 62.2818 53.3779C63.1617 52.7208 62.4526 51.1949 61.4279 51.1503C60.9009 51.1286 60.3828 51.2903 59.9617 51.6078C59.5406 51.9253 59.2427 52.379 59.1186 52.8916C59.0369 53.9683 60.3697 54.5177 61.3091 54.1353C62.2707 53.8346 63.2731 52.925 63.1246 51.8557C63.1049 51.6192 63.0164 51.3936 62.8699 51.2069C62.7234 51.0201 62.5254 50.8804 62.3004 50.805C61.3499 50.5674 59.9539 50.8719 59.0852 51.3285C58.2164 51.7852 57.7968 53.0846 58.7659 53.7381C59.4825 54.1757 60.3112 54.3951 61.1506 54.3694C61.9899 54.3437 62.8036 54.074 63.4921 53.5933C65.5898 51.6367 61.6358 49.8212 59.9168 50.1479C58.209 50.2184 56.839 52.5314 58.2869 53.7863C59.6643 54.7925 61.9588 55.0227 63.2137 53.6824C62.8211 54.1591 62.2843 54.4953 61.684 54.6403C60.2992 54.9595 58.2052 54.6403 57.5035 53.2443C57.3338 52.7806 57.3017 52.2778 57.411 51.7963C57.5203 51.3148 57.7665 50.8752 58.1199 50.5303C59.8648 48.5069 65.6826 50.2518 64.5465 53.2666C63.4327 55.4942 58.8661 55.6909 57.6595 53.4782C56.8538 51.5513 58.9181 50.2741 60.5517 50.0922C61.4501 49.9029 62.7793 49.8509 63.4364 50.7568C65.0329 53.0327 61.6952 55.8469 59.4824 54.6403C59.1562 54.4665 58.8874 54.2017 58.7088 53.8781C58.5302 53.5545 58.4494 53.186 58.4763 52.8173C58.7584 50.6974 62.189 49.4759 63.0689 51.826C63.215 52.1569 63.2462 52.5271 63.1573 52.8777C63.0685 53.2283 62.8648 53.539 62.5788 53.7603C61.6209 54.4435 59.2856 54.6031 59.2374 53.0178C59.2597 51.9597 61.7732 50.5711 62.3152 51.8372C62.3612 51.9967 62.374 52.1639 62.3528 52.3286C62.3316 52.4933 62.2769 52.6518 62.192 52.7945C62.1071 52.9372 61.9938 53.0609 61.8592 53.1581C61.7246 53.2552 61.5715 53.3237 61.4093 53.3594C60.7856 53.4422 60.1513 53.3429 59.5827 53.0735C59.5771 52.9054 59.6288 52.7403 59.7293 52.6054C59.8298 52.4705 59.9732 52.3738 60.1358 52.331L60.1024 52.3421Z" fill="white"/>
<path d="M37.8568 62.0916L36.3717 66.584L36.3197 66.5506C37.8747 65.0742 39.8693 64.146 42.0002 63.9071C44.1424 63.677 46.2364 64.2153 48.3118 64.4269C50.404 64.6971 52.5159 64.784 54.6233 64.6868C59.8211 64.4603 65.2305 62.2847 68.0336 57.7069C69.2811 55.7726 70.354 54.3989 69.5744 51.982C68.9662 49.976 67.9229 48.1289 66.5188 46.5725C66.3369 46.3758 65.8802 45.9154 65.702 45.7261C65.5238 45.5367 65.0189 45.106 64.8296 44.939C64.2213 44.4428 63.5881 43.9781 62.9324 43.5467C56.1567 39.1249 47.443 40.0122 40.1884 42.8376C35.5883 44.7348 32.3917 45.4365 32.3917 51.2394C32.3286 55.3865 33.951 59.9049 37.6377 62.1362C33.925 59.9457 32.2135 55.4162 32.2172 51.2394C32.1652 45.3808 35.4435 44.5231 40.103 42.6037C47.4059 39.7226 56.2532 38.813 63.144 43.246C63.7677 43.6544 64.5103 44.1853 65.0857 44.6568C65.2751 44.8313 65.7986 45.2917 65.9842 45.4587C66.1698 45.6258 66.6265 46.1345 66.8158 46.3275C68.2478 47.9334 69.3087 49.8347 69.9234 51.8966C70.7105 54.4212 69.6486 55.858 68.3121 57.8851C65.4459 62.5186 59.9325 64.7277 54.6568 64.9393C51.4713 65.1138 48.3043 64.6794 45.1671 64.1967C42.0484 63.6398 38.7033 64.3824 36.3717 66.6063L36.2752 66.6954L36.3197 66.5729L37.8568 62.1176V62.0916Z" fill="#454545"/>
<defs>
<filter id="filter0_d_2_109" x="3.13699" y="3.13699" width="93.6986" height="109.726" filterUnits="userSpaceOnUse" color-interpolation-filters="sRGB">
<feFlood flood-opacity="0" result="BackgroundImageFix"/>
<feColorMatrix in="SourceAlpha" type="matrix" values="0 0 0 0 0 0 0 0 0 0 0 0 0 0 0 0 0 0 127 0" result="hardAlpha"/>
<feOffset/>
<feGaussianBlur stdDeviation="4.93151"/>
<feComposite in2="hardAlpha" operator="out"/>
<feColorMatrix type="matrix" values="0 0 0 0 0 0 0 0 0 0 0 0 0 0 0 0 0 0 0.05 0"/>
<feBlend mode="normal" in2="BackgroundImageFix" result="effect1_dropShadow_2_109"/>
<feBlend mode="normal" in="SourceGraphic" in2="effect1_dropShadow_2_109" result="shape"/>
</filter>
<filter id="filter1_d_2_109" x="0.671233" y="8.06869" width="98.6301" height="98.6302" filterUnits="userSpaceOnUse" color-interpolation-filters="sRGB">
<feFlood flood-opacity="0" result="BackgroundImageFix"/>
<feColorMatrix in="SourceAlpha" type="matrix" values="0 0 0 0 0 0 0 0 0 0 0 0 0 0 0 0 0 0 127 0" result="hardAlpha"/>
<feOffset/>
<feGaussianBlur stdDeviation="6.16438"/>
<feComposite in2="hardAlpha" operator="out"/>
<feColorMatrix type="matrix" values="0 0 0 0 0 0 0 0 0 0 0 0 0 0 0 0 0 0 0.08 0"/>
<feBlend mode="normal" in2="BackgroundImageFix" result="effect1_dropShadow_2_109"/>
<feBlend mode="normal" in="SourceGraphic" in2="effect1_dropShadow_2_109" result="shape"/>
</filter>
<linearGradient id="paint0_linear_2_109" x1="26.2475" y1="12.88" x2="114.411" y2="58.8844" gradientUnits="userSpaceOnUse">
<stop stop-color="#3CA0D2"/>
<stop offset="1" stop-color="#48DCA6"/>
</linearGradient>
<linearGradient id="paint1_linear_2_109" x1="34.4977" y1="42.2866" x2="69.1109" y2="66.8831" gradientUnits="userSpaceOnUse">
<stop stop-color="#3CA0D2"/>
<stop offset="1" stop-color="#48DCA6"/>
</linearGradient>
</defs>
</svg>
