<svg width="108" height="107" viewBox="0 0 108 107" fill="none" xmlns="http://www.w3.org/2000/svg">
<ellipse cx="61.3557" cy="45.2743" rx="43.4573" ry="43.7563" fill="white"/>
<path d="M20.1439 27.9557C26.1336 21.3609 30.9253 13.6146 37.7038 7.8759M19.0472 35.7632C29.703 25.2349 37.9782 13.6136 41.107 5.07929M19.2991 39.0388C26.3523 26.4418 34.1271 19.0878 46.503 7.43094M19.1777 41.2017C29.0055 28.6517 38.764 19.272 48.1267 6.03414M17 46.524C32.8455 28.2482 46.0991 13.1092 55.1161 3.59151M18.571 47.647C28.2387 35.3146 38.4368 22.8863 56.3339 2.46541M19.9844 50.3537C31.3087 36.867 43.0748 18.7006 57.2074 1M20.6299 53.1553C37.4145 34.3986 52.6621 14.2739 60.2192 1.27248M20.8792 57.6164C28.3714 42.4811 39.9613 30.7177 62.7087 2.16342M22.0756 58.2719C34.8889 39.768 52.079 21.671 68.7609 2.1774M23.1075 61.9531C38.3452 40.0416 57.9056 18.7824 67.7341 3.05144M23.7389 64.0213C36.4991 45.3206 48.3765 30.2071 72.8581 1.92708M23.7693 65.9984C37.8276 44.7998 53.6743 28.656 71.614 2.20063M22.6631 66.793C40.2089 46.6758 53.9538 29.3256 74.0891 6.12629M26.2272 68.0313C36.4172 56.3507 45.8886 44.8889 79.0613 5.03345M27.6125 69.6947C44.7342 49.9303 65.9971 25.2872 81.9813 6.45798M29.8405 72.1668C48.6343 47.0181 65.4506 26.1063 82.8249 8.96218M28.3862 75.6678C49.0625 49.185 72.4246 21.164 82.4824 6.5913M31.9475 73.6977C44.2888 60.306 57.5644 44.5846 85.0157 7.8684M33.3076 76.631C53.3455 54.5042 70.0544 32.7374 87.1623 10.923M33.1482 76.5039C51.846 60.1931 69.0408 39.7839 88.269 12.7035M35.2974 78.1266C57.0636 55.8357 75.4879 32.3958 91.0323 12.1229M37.5105 79.541C60.2965 56.3704 80.3423 28.079 92.4878 13.9178M36.9561 81.8124C49.5417 64.8504 65.9218 49.3251 93.2715 13.9694M40.187 81.8304C54.5525 65.366 67.8053 50.2203 95.0868 15.3295M43.6913 84.0219C60.1227 65.2759 78.3188 40.8528 97.3096 20.7659M43.9436 87.5763C59.6992 67.9942 72.0606 48.932 97.6513 19.4111M46.6172 85.7054C57.6451 69.5402 74.5968 54.767 98.369 23.0067M47.1203 88.0173C63.1037 65.25 80.6842 47.9013 98.1971 22.6156M50.7333 87.5005C68.4541 66.397 88.7939 41.5164 101.372 26.0132M53.1108 86.8925C61.53 75.8113 75.1887 63.356 101.708 29.578M53.7583 88.5469C69.0834 70.3214 87.6644 47.5802 103.064 29.2022M57.8446 89.4783C74.2035 66.767 88.4249 47.3854 102.191 34.8776M59.0278 90.6884C73.6345 74.3336 86.3172 59.2807 102.621 35.639M60.9552 91C73.3668 77.264 81.1897 63.7451 105.509 39.0244M65.1029 88.8472C80.395 73.2804 93.5152 59.0051 103.937 38.1505M66.9987 89.1032C77.5272 72.6726 89.0854 57.997 103.546 44.7703M70.0651 87.4579C84.9037 72.3303 95.6884 57.0054 104.008 46.3777M74.9795 87.7527C84.7305 72.6428 95.7531 59.9095 107 51.3779M78.2582 87.207C86.6317 75.2485 98.6843 62.8801 105.812 52.2048M82.2248 82.6991C90.6194 73.935 95.7768 67.0038 103.995 61.0468M86.0715 80.4248C91.2098 75.8517 97.068 67.948 102.628 63.7043M30.4999 14.4881V14.4881Z" stroke="url(#paint0_linear_2_96)" stroke-width="0.5" stroke-linecap="round"/>
<g filter="url(#filter0_d_2_96)">
<g filter="url(#filter1_d_2_96)">
<circle cx="49.9863" cy="57.3838" r="36.9863" fill="white"/>
</g>
</g>
<path d="M49.351 42.6679C38.623 43.8259 26.647 51.4489 28.789 63.2299H69.916C71.281 50.9809 60.757 41.4319 49.351 42.6679Z" fill="url(#paint1_linear_2_96)"/>
<path d="M47.923 62.6482C47.7868 62.6932 47.6687 62.7808 47.5861 62.898C47.5034 63.0152 47.4606 63.1559 47.464 63.2992C47.881 63.3772 48.559 63.6172 49.054 63.4492C49.1775 63.4184 49.2934 63.3629 49.3949 63.2862C49.4964 63.2094 49.5814 63.113 49.6447 63.0026C49.708 62.8922 49.7484 62.7702 49.7634 62.6438C49.7784 62.5175 49.7677 62.3894 49.732 62.2672C49.282 61.5232 48.232 62.2672 47.767 62.6692C46.732 63.7672 48.322 64.2442 49.234 63.9262C49.4788 63.8699 49.7108 63.7681 49.918 63.6262C50.743 63.0082 50.083 61.5802 49.12 61.5412C48.19 61.4392 47.107 62.2492 46.972 63.1642C46.894 64.1782 48.142 64.6972 49.021 64.3402C49.5032 64.1861 49.9353 63.9053 50.272 63.5272C50.923 62.8522 50.902 61.5412 49.927 61.2202C49.045 60.9982 47.764 61.2802 46.954 61.7062C46.093 62.1832 45.754 63.3502 46.654 63.9712C47.893 64.7992 49.867 64.7422 51.022 63.8332C53.632 61.4692 46.171 58.6162 45.679 62.6332C45.523 64.4182 47.947 64.9432 49.324 64.6792C49.87 64.5803 50.3691 64.3065 50.746 63.8992C50.3847 64.3317 49.8933 64.6359 49.345 64.7662C48.094 65.0662 46.162 64.7662 45.541 63.4882C45.3867 63.0678 45.3575 62.6117 45.4571 62.1751C45.5567 61.7385 45.7807 61.3401 46.102 61.0282C47.428 59.7562 49.582 60.1492 50.992 61.0792C52.135 61.8262 52.549 63.2782 51.355 64.2352C50.419 65.0062 49.159 65.1862 47.998 65.0422C45.721 64.8262 44.503 62.6752 46.648 61.2112C47.1656 60.9227 47.7322 60.7325 48.319 60.6502C48.911 60.5054 49.53 60.5116 50.119 60.6682C51.103 60.9682 51.529 62.1682 51.175 63.1012C50.575 64.8112 47.794 65.8462 46.675 64.0732C45.655 62.2492 48.514 60.1732 50.059 61.4482C50.806 62.0482 51.01 63.3592 50.161 63.9472C49.312 64.5352 47.17 64.7002 47.122 63.2692C47.122 62.3212 49.42 61.0492 49.906 62.1922C49.9481 62.3367 49.96 62.4883 49.9408 62.6376C49.9217 62.7868 49.8721 62.9306 49.7949 63.0598C49.7178 63.189 49.6149 63.3009 49.4925 63.3886C49.3702 63.4762 49.2312 63.5377 49.084 63.5692C48.502 63.7042 47.941 63.5002 47.419 63.3172C47.4175 63.1658 47.4661 63.018 47.5573 62.897C47.6484 62.776 47.777 62.6886 47.923 62.6482Z" fill="#454545"/>
<path d="M48.766 59.78C51.2958 57.5387 53.6062 55.0615 55.666 52.382C56.706 51.054 57.733 49.711 58.747 48.353C59.755 46.988 60.82 45.68 61.6 44.234L62.308 44.768C59.7385 47.3176 57.4152 50.1039 55.369 53.09C53.3196 56.0921 51.5321 59.2647 50.026 62.573C50.6085 60.8391 51.2999 59.1437 52.096 57.497C53.7043 54.1893 55.6851 51.0761 58 48.218C59.704 46.064 61.93 43.88 63.91 41.96L62.41 44.66C61.558 46.193 60.475 47.531 59.437 48.86C56.302 52.856 52.996 56.864 48.787 59.777L48.766 59.78Z" fill="#454545"/>
<path d="M28.354 54.7278C29.4662 54.701 30.5744 54.8716 31.627 55.2318C32.6883 55.5653 33.6825 56.0833 34.564 56.7618C34.018 56.6298 33.499 56.4618 32.983 56.2998C31.537 55.8228 29.767 55.2918 28.354 54.7278Z" fill="#FEFFFF"/>
<path d="M35.863 45.3589C37.508 47.3416 38.97 49.4693 40.231 51.7159C38.3054 49.9611 36.8106 47.7857 35.863 45.3589Z" fill="#FEFFFF"/>
<path d="M48.1 40.7002C48.6103 43.2094 48.7116 45.7846 48.4 48.3262C47.8882 45.8172 47.7869 43.2417 48.1 40.7002Z" fill="#FEFFFF"/>
<path d="M62.434 50.3839C64.2305 48.696 66.3836 47.4339 68.734 46.6909C66.7805 48.1563 64.667 49.3952 62.434 50.3839Z" fill="#FEFFFF"/>
<path d="M66.31 58.5442C68.8688 58.3641 71.4398 58.5981 73.924 59.2372C71.3652 59.4201 68.7937 59.1861 66.31 58.5442Z" fill="#FEFFFF"/>
<path d="M61.09 42.1729C60.379 43.5379 59.371 45.1189 58.576 46.4389C58.276 46.9069 57.997 47.3749 57.676 47.8339C58.173 45.6278 59.3707 43.6418 61.09 42.1729Z" fill="#FEFFFF"/>
<defs>
<filter id="filter0_d_2_96" x="3.13699" y="3.13699" width="93.6986" height="109.726" filterUnits="userSpaceOnUse" color-interpolation-filters="sRGB">
<feFlood flood-opacity="0" result="BackgroundImageFix"/>
<feColorMatrix in="SourceAlpha" type="matrix" values="0 0 0 0 0 0 0 0 0 0 0 0 0 0 0 0 0 0 127 0" result="hardAlpha"/>
<feOffset/>
<feGaussianBlur stdDeviation="4.93151"/>
<feComposite in2="hardAlpha" operator="out"/>
<feColorMatrix type="matrix" values="0 0 0 0 0 0 0 0 0 0 0 0 0 0 0 0 0 0 0.05 0"/>
<feBlend mode="normal" in2="BackgroundImageFix" result="effect1_dropShadow_2_96"/>
<feBlend mode="normal" in="SourceGraphic" in2="effect1_dropShadow_2_96" result="shape"/>
</filter>
<filter id="filter1_d_2_96" x="0.671233" y="8.06869" width="98.6301" height="98.6302" filterUnits="userSpaceOnUse" color-interpolation-filters="sRGB">
<feFlood flood-opacity="0" result="BackgroundImageFix"/>
<feColorMatrix in="SourceAlpha" type="matrix" values="0 0 0 0 0 0 0 0 0 0 0 0 0 0 0 0 0 0 127 0" result="hardAlpha"/>
<feOffset/>
<feGaussianBlur stdDeviation="6.16438"/>
<feComposite in2="hardAlpha" operator="out"/>
<feColorMatrix type="matrix" values="0 0 0 0 0 0 0 0 0 0 0 0 0 0 0 0 0 0 0.08 0"/>
<feBlend mode="normal" in2="BackgroundImageFix" result="effect1_dropShadow_2_96"/>
<feBlend mode="normal" in="SourceGraphic" in2="effect1_dropShadow_2_96" result="shape"/>
</filter>
<linearGradient id="paint0_linear_2_96" x1="26.2475" y1="12.88" x2="114.411" y2="58.8844" gradientUnits="userSpaceOnUse">
<stop stop-color="#3CA0D2"/>
<stop offset="1" stop-color="#48DCA6"/>
</linearGradient>
<linearGradient id="paint1_linear_2_96" x1="32.802" y1="45.2885" x2="57.46" y2="71.1203" gradientUnits="userSpaceOnUse">
<stop stop-color="#3CA0D2"/>
<stop offset="1" stop-color="#48DCA6"/>
</linearGradient>
</defs>
</svg>
