<svg width="108" height="101" viewBox="0 0 108 101" fill="none" xmlns="http://www.w3.org/2000/svg">
<ellipse cx="61.3557" cy="45.2743" rx="43.4573" ry="43.7563" fill="white"/>
<path d="M20.1439 27.9557C26.1336 21.3609 30.9253 13.6146 37.7038 7.8759M19.0472 35.7632C29.703 25.2349 37.9782 13.6136 41.107 5.07929M19.2991 39.0388C26.3523 26.4418 34.1271 19.0878 46.503 7.43094M19.1777 41.2017C29.0055 28.6517 38.764 19.272 48.1267 6.03414M17 46.524C32.8455 28.2482 46.0991 13.1092 55.1161 3.59151M18.571 47.647C28.2387 35.3146 38.4368 22.8863 56.3339 2.46541M19.9844 50.3537C31.3087 36.867 43.0748 18.7006 57.2074 1M20.6299 53.1553C37.4145 34.3986 52.6621 14.2739 60.2192 1.27248M20.8792 57.6164C28.3714 42.4811 39.9613 30.7177 62.7087 2.16342M22.0756 58.2719C34.8889 39.768 52.079 21.671 68.7609 2.1774M23.1075 61.9531C38.3452 40.0416 57.9056 18.7824 67.7341 3.05144M23.7389 64.0213C36.4991 45.3206 48.3765 30.2071 72.8581 1.92708M23.7693 65.9984C37.8276 44.7998 53.6743 28.656 71.614 2.20063M22.6631 66.793C40.2089 46.6758 53.9538 29.3256 74.0891 6.12629M26.2272 68.0313C36.4172 56.3507 45.8886 44.8889 79.0613 5.03345M27.6125 69.6947C44.7342 49.9303 65.9971 25.2872 81.9813 6.45798M29.8405 72.1668C48.6343 47.0181 65.4506 26.1063 82.8249 8.96218M28.3862 75.6678C49.0625 49.185 72.4246 21.164 82.4824 6.5913M31.9475 73.6977C44.2888 60.306 57.5644 44.5846 85.0157 7.8684M33.3076 76.631C53.3455 54.5042 70.0544 32.7374 87.1623 10.923M33.1482 76.5039C51.846 60.1931 69.0408 39.7839 88.269 12.7035M35.2974 78.1266C57.0636 55.8357 75.4879 32.3958 91.0323 12.1229M37.5105 79.541C60.2965 56.3704 80.3423 28.079 92.4878 13.9178M36.9561 81.8124C49.5417 64.8504 65.9218 49.3251 93.2715 13.9694M40.187 81.8304C54.5525 65.366 67.8053 50.2203 95.0868 15.3295M43.6913 84.0219C60.1227 65.2759 78.3188 40.8528 97.3096 20.7659M43.9436 87.5763C59.6992 67.9942 72.0606 48.932 97.6513 19.4111M46.6172 85.7054C57.6451 69.5402 74.5968 54.767 98.369 23.0067M47.1203 88.0173C63.1037 65.25 80.6842 47.9013 98.1971 22.6156M50.7333 87.5005C68.4541 66.397 88.7939 41.5164 101.372 26.0132M53.1108 86.8925C61.53 75.8113 75.1887 63.356 101.708 29.578M53.7583 88.5469C69.0834 70.3214 87.6644 47.5802 103.064 29.2022M57.8446 89.4783C74.2035 66.767 88.4249 47.3854 102.191 34.8776M59.0278 90.6884C73.6345 74.3336 86.3172 59.2807 102.621 35.639M60.9552 91C73.3668 77.264 81.1897 63.7451 105.509 39.0244M65.1029 88.8472C80.395 73.2804 93.5152 59.0051 103.937 38.1505M66.9987 89.1032C77.5272 72.6726 89.0854 57.997 103.546 44.7703M70.0651 87.4579C84.9037 72.3303 95.6884 57.0054 104.008 46.3777M74.9795 87.7527C84.7305 72.6428 95.7531 59.9095 107 51.3779M78.2582 87.207C86.6317 75.2485 98.6843 62.8801 105.812 52.2048M82.2248 82.6991C90.6194 73.935 95.7768 67.0038 103.995 61.0468M86.0715 80.4248C91.2098 75.8517 97.068 67.948 102.628 63.7043M30.4999 14.4881V14.4881Z" stroke="url(#paint0_linear_2_148)" stroke-width="0.5" stroke-linecap="round"/>
<g filter="url(#filter0_d_2_148)">
<g filter="url(#filter1_d_2_148)">
<circle cx="49.9863" cy="57.3835" r="36.9863" fill="white"/>
</g>
</g>
<path d="M49.3842 71.0534C45.6146 71.0534 41.8409 71.0534 38.0712 71.0534C36.0851 71.0534 34.5853 69.9549 34.1313 68.1268C33.9799 67.5551 33.9591 66.9566 34.0705 66.3758C34.5286 64.422 35.0069 62.4683 35.6108 60.5551C36.1295 58.8626 36.9914 57.2951 38.1428 55.9505C39.2942 54.6059 40.7104 53.5131 42.3029 52.7402C42.444 52.6488 42.6111 52.6061 42.7786 52.6186C42.9462 52.631 43.1052 52.6979 43.2312 52.8091C45.0444 54.1004 47.215 54.7943 49.4409 54.7943C51.6669 54.7943 53.8375 54.1004 55.6507 52.8091C55.7798 52.7007 55.9409 52.6376 56.1093 52.6295C56.2777 52.6215 56.4441 52.6689 56.583 52.7645C60.3364 54.7061 62.6347 57.7623 63.6399 61.84C63.9723 63.1736 64.329 64.5031 64.6735 65.8326C65.4396 68.7713 63.6723 71.0615 60.6201 71.0655L49.3842 71.0534Z" fill="url(#paint1_linear_2_148)"/>
<path d="M58.3584 43.9606C58.3868 48.8247 55.6792 51.8039 49.4856 52.9145C44.5972 52.9591 39.9115 49.3395 40.4993 43.9971C40.4993 39.1006 44.5526 35.485 49.441 35.0473C55.5697 34.4838 58.3341 39.0479 58.3584 43.9606Z" fill="url(#paint2_linear_2_148)"/>
<path d="M35.1846 67.6001C35.88 62.9369 38.0174 58.6083 41.2971 55.2211C41.4388 55.0618 41.6142 54.936 41.8104 54.8526C42.0067 54.7692 42.2189 54.7303 42.432 54.7387C43.6034 54.9454 44.6573 55.4035 45.8409 55.5494C48.8876 56.0817 52.0166 55.8929 54.9772 54.9981C55.5447 54.8482 56.1932 54.4915 56.785 54.7104C59.0103 55.9912 60.6479 58.1882 61.7504 60.4783C62.7526 62.6306 63.1999 64.9995 63.0515 67.369C63.0515 68.1513 62.8975 69.2133 62.0057 69.4971C56.0027 71.0211 49.4849 70.0443 43.3602 69.7889L38.7151 69.4971C37.5842 69.4282 36.283 69.1444 35.6629 68.0703C35.459 67.7337 35.3774 67.3372 35.4318 66.9475C35.2859 68.6986 37.2721 69.4079 38.7232 69.3795C44.8519 69.5376 51.2197 70.2307 57.3282 69.8619C58.861 69.767 60.3812 69.5254 61.8679 69.1404C62.63 68.8769 62.63 68.0297 62.6786 67.3326C62.7279 66.5678 62.7103 65.8001 62.6259 65.0384C62.2767 61.9783 60.9522 59.1119 58.8482 56.8627C58.3222 56.3059 57.75 55.7947 57.1376 55.3346C57.0131 55.218 56.8639 55.1308 56.7011 55.0796C56.5384 55.0284 56.3662 55.0144 56.1973 55.0387C55.8568 55.0995 55.4798 55.2535 55.1029 55.3589C52.0882 56.2678 48.8995 56.4401 45.8044 55.8615C44.6654 55.6994 43.5386 55.2251 42.4361 55.0103C42.2586 55.0001 42.0812 55.0314 41.9179 55.1018C41.7547 55.1721 41.6101 55.2796 41.4957 55.4156C38.1988 58.7391 36.0028 62.9954 35.2048 67.6082L35.1846 67.6001Z" fill="#454545"/>
<path d="M52.6562 60.7092C54.1415 60.3558 55.6793 60.2803 57.192 60.4863C55.7065 60.8376 54.1691 60.9132 52.6562 60.7092Z" fill="#454545"/>
<path d="M52.4692 60.9848C52.51 62.0535 52.6251 63.1181 52.8137 64.1708C52.8343 64.3986 52.9382 64.6107 53.1056 64.7666C53.8196 65.038 54.5793 65.1687 55.343 65.1517C58.0993 65.176 57.5886 62.2495 57.5967 60.3403C57.9574 62.4805 58.4317 65.5003 55.3471 65.557C54.5364 65.5165 53.6122 65.4719 52.8867 65.0463C52.6611 64.8344 52.5249 64.5445 52.5057 64.2356C52.3696 63.1597 52.3573 62.0717 52.4692 60.9929V60.9848Z" fill="#454545"/>
<path d="M45.1362 46.6035C47.7101 48.9342 52.1323 48.9706 53.8793 45.6996L54.1549 45.9184C52.3228 47.4668 49.8705 48.4842 47.4385 48.1519C47.0171 48.0775 46.6203 47.9008 46.2833 47.6371C45.9388 47.3533 45.7523 46.9764 45.4726 46.8264L45.732 46.6278C45.9306 47.4385 46.8913 47.7627 47.6331 47.9978C50.0164 48.8085 53.3078 48.5977 54.5238 46.0319C54.1923 46.8799 53.5703 47.5824 52.7687 48.014C50.7906 49.1287 48.2451 48.7639 46.2833 47.8316C46.0657 47.719 45.8738 47.5625 45.7196 47.3721C45.5654 47.1816 45.4524 46.9613 45.3875 46.7251L45.3024 46.3197L45.6469 46.5143C46.0522 46.7494 46.2509 47.1426 46.5305 47.325C46.8119 47.5518 47.1445 47.7063 47.4993 47.7749C49.7732 48.0465 52.1688 47.102 53.9077 45.6469L54.6049 45.051C52.943 49.1368 48.087 49.5097 45.124 46.6035H45.1362Z" fill="white"/>
<path d="M44.4961 43.0039C44.5285 41.5325 46.4539 40.7178 47.5726 41.6663C47.9334 41.935 48.176 42.3331 48.2495 42.7769C48.0657 42.4243 47.7838 42.1324 47.4377 41.9365C47.0916 41.7406 46.6961 41.6492 46.2992 41.6732C45.9022 41.6972 45.5207 41.8356 45.2008 42.0718C44.8808 42.3079 44.636 42.6317 44.4961 43.0039Z" fill="white"/>
<path d="M51.2402 42.793C51.1983 42.565 51.228 42.3296 51.3252 42.1191C51.4225 41.9086 51.5825 41.7334 51.7833 41.6176C52.1846 41.3742 52.6562 41.2734 53.1219 41.3315C53.5876 41.3896 54.02 41.6032 54.3491 41.9378C54.6833 42.2401 54.9073 42.6451 54.9855 43.0889C54.7741 42.7309 54.4896 42.4215 54.1505 42.181C53.2709 41.4838 51.5077 41.4676 51.2402 42.793Z" fill="white"/>
<defs>
<filter id="filter0_d_2_148" x="3.13699" y="3.13699" width="93.6986" height="109.726" filterUnits="userSpaceOnUse" color-interpolation-filters="sRGB">
<feFlood flood-opacity="0" result="BackgroundImageFix"/>
<feColorMatrix in="SourceAlpha" type="matrix" values="0 0 0 0 0 0 0 0 0 0 0 0 0 0 0 0 0 0 127 0" result="hardAlpha"/>
<feOffset/>
<feGaussianBlur stdDeviation="4.93151"/>
<feComposite in2="hardAlpha" operator="out"/>
<feColorMatrix type="matrix" values="0 0 0 0 0 0 0 0 0 0 0 0 0 0 0 0 0 0 0.05 0"/>
<feBlend mode="normal" in2="BackgroundImageFix" result="effect1_dropShadow_2_148"/>
<feBlend mode="normal" in="SourceGraphic" in2="effect1_dropShadow_2_148" result="shape"/>
</filter>
<filter id="filter1_d_2_148" x="0.671233" y="8.06845" width="98.6301" height="98.6302" filterUnits="userSpaceOnUse" color-interpolation-filters="sRGB">
<feFlood flood-opacity="0" result="BackgroundImageFix"/>
<feColorMatrix in="SourceAlpha" type="matrix" values="0 0 0 0 0 0 0 0 0 0 0 0 0 0 0 0 0 0 127 0" result="hardAlpha"/>
<feOffset/>
<feGaussianBlur stdDeviation="6.16438"/>
<feComposite in2="hardAlpha" operator="out"/>
<feColorMatrix type="matrix" values="0 0 0 0 0 0 0 0 0 0 0 0 0 0 0 0 0 0 0.08 0"/>
<feBlend mode="normal" in2="BackgroundImageFix" result="effect1_dropShadow_2_148"/>
<feBlend mode="normal" in="SourceGraphic" in2="effect1_dropShadow_2_148" result="shape"/>
</filter>
<linearGradient id="paint0_linear_2_148" x1="26.2475" y1="12.88" x2="114.411" y2="58.8844" gradientUnits="userSpaceOnUse">
<stop stop-color="#3CA0D2"/>
<stop offset="1" stop-color="#48DCA6"/>
</linearGradient>
<linearGradient id="paint1_linear_2_148" x1="37.17" y1="55.0517" x2="58.9996" y2="74.1003" gradientUnits="userSpaceOnUse">
<stop stop-color="#3CA0D2"/>
<stop offset="1" stop-color="#48DCA6"/>
</linearGradient>
<linearGradient id="paint2_linear_2_148" x1="42.2894" y1="37.3648" x2="59.8357" y2="46.5177" gradientUnits="userSpaceOnUse">
<stop stop-color="#3CA0D2"/>
<stop offset="1" stop-color="#48DCA6"/>
</linearGradient>
</defs>
</svg>
