<svg width="108" height="107" viewBox="0 0 108 107" fill="none" xmlns="http://www.w3.org/2000/svg">
<ellipse cx="61.3557" cy="44.7743" rx="43.4573" ry="43.7563" fill="white"/>
<path d="M20.1439 27.4557C26.1336 20.8609 30.9253 13.1146 37.7038 7.3759M19.0472 35.2632C29.703 24.7349 37.9782 13.1136 41.107 4.57929M19.2991 38.5388C26.3523 25.9418 34.1271 18.5878 46.503 6.93094M19.1777 40.7017C29.0055 28.1517 38.764 18.772 48.1267 5.53414M17 46.024C32.8455 27.7482 46.0991 12.6092 55.1161 3.09151M18.571 47.147C28.2387 34.8146 38.4368 22.3863 56.3339 1.96541M19.9844 49.8537C31.3087 36.367 43.0748 18.2006 57.2074 0.5M20.6299 52.6553C37.4145 33.8986 52.6621 13.7739 60.2192 0.772482M20.8792 57.1164C28.3714 41.9811 39.9613 30.2177 62.7087 1.66342M22.0756 57.7719C34.8889 39.268 52.079 21.171 68.7609 1.6774M23.1075 61.4531C38.3452 39.5416 57.9056 18.2824 67.7341 2.55144M23.7389 63.5213C36.4991 44.8206 48.3765 29.7071 72.8581 1.42708M23.7693 65.4984C37.8276 44.2998 53.6743 28.156 71.614 1.70063M22.6631 66.293C40.2089 46.1758 53.9538 28.8256 74.0891 5.62629M26.2272 67.5313C36.4172 55.8507 45.8886 44.3889 79.0613 4.53345M27.6125 69.1947C44.7342 49.4303 65.9971 24.7872 81.9813 5.95798M29.8405 71.6668C48.6343 46.5181 65.4506 25.6063 82.8249 8.46218M28.3862 75.1678C49.0625 48.685 72.4246 20.664 82.4824 6.0913M31.9475 73.1977C44.2888 59.806 57.5644 44.0846 85.0157 7.3684M33.3076 76.131C53.3455 54.0042 70.0544 32.2374 87.1623 10.423M33.1482 76.0039C51.846 59.6931 69.0408 39.2839 88.269 12.2035M35.2974 77.6266C57.0636 55.3357 75.4879 31.8958 91.0323 11.6229M37.5105 79.041C60.2965 55.8704 80.3423 27.579 92.4878 13.4178M36.9561 81.3124C49.5417 64.3504 65.9218 48.8251 93.2715 13.4694M40.187 81.3304C54.5525 64.866 67.8053 49.7203 95.0868 14.8295M43.6913 83.5219C60.1227 64.7759 78.3188 40.3528 97.3096 20.2659M43.9436 87.0763C59.6992 67.4942 72.0606 48.432 97.6513 18.9111M46.6172 85.2054C57.6451 69.0402 74.5968 54.267 98.369 22.5067M47.1203 87.5173C63.1037 64.75 80.6842 47.4013 98.1971 22.1156M50.7333 87.0005C68.4541 65.897 88.7939 41.0164 101.372 25.5132M53.1108 86.3925C61.53 75.3113 75.1887 62.856 101.708 29.078M53.7583 88.0469C69.0834 69.8214 87.6644 47.0802 103.064 28.7022M57.8446 88.9783C74.2035 66.267 88.4249 46.8854 102.191 34.3776M59.0278 90.1884C73.6345 73.8336 86.3172 58.7807 102.621 35.139M60.9552 90.5C73.3668 76.764 81.1897 63.2451 105.509 38.5244M65.1029 88.3472C80.395 72.7804 93.5152 58.5051 103.937 37.6505M66.9987 88.6032C77.5272 72.1726 89.0854 57.497 103.546 44.2703M70.0651 86.9579C84.9037 71.8303 95.6884 56.5054 104.008 45.8777M74.9795 87.2527C84.7305 72.1428 95.7531 59.4095 107 50.8779M78.2582 86.707C86.6317 74.7485 98.6843 62.3801 105.812 51.7048M82.2248 82.1991C90.6194 73.435 95.7768 66.5038 103.995 60.5468M86.0715 79.9248C91.2098 75.3517 97.068 67.448 102.628 63.2043M30.4999 13.9881V13.9881Z" stroke="url(#paint0_linear_426_219)" stroke-width="0.5" stroke-linecap="round"/>
<g filter="url(#filter0_d_426_219)">
<g filter="url(#filter1_d_426_219)">
<circle cx="49.9863" cy="56.8838" r="36.9863" fill="white"/>
</g>
</g>
<path d="M63.2662 38.6025H33.8798C32.5129 38.6025 31.4048 39.7106 31.4048 41.0776V57.221C31.4048 58.5879 32.5129 59.696 33.8798 59.696H63.2662C64.6331 59.696 65.7412 58.5879 65.7412 57.221V41.0776C65.7412 39.7106 64.6331 38.6025 63.2662 38.6025Z" fill="url(#paint1_linear_426_219)"/>
<path d="M68.071 61.4453H29.2202C29.2202 61.4453 27.0524 67.4624 36.3515 67.4624H63.4148C63.4148 67.4624 70.2523 65.5073 68.797 61.4453" fill="url(#paint2_linear_426_219)"/>
<path d="M32.4547 54.7528L33.0692 42.9348C33.0692 42.6883 33.0895 42.4452 33.1131 42.1919C33.1435 41.3073 33.8289 40.8413 34.6427 40.713C37.5567 40.1086 40.5584 40.1626 43.5129 40.2302L55.3512 40.4969C56.4419 40.5442 61.7667 40.5948 62.7797 40.6961C64.5659 40.8785 64.8056 43.0091 64.6638 44.4374L64.3262 50.3498C64.2688 51.3222 64.1269 53.8378 64.0729 54.7798C64.0189 55.7219 63.9716 56.8328 63.3976 57.7039C62.4859 59.1052 60.6254 58.8317 59.1904 58.8148L53.2713 58.6629C51.0934 58.6089 40.4132 58.3252 38.4751 58.2712C37.4856 58.2757 36.4975 58.1989 35.5206 58.0416C33.8323 57.7917 32.1204 56.3803 32.35 54.5435C32.3895 54.2991 32.4718 54.0637 32.5931 53.8479C32.4756 54.0644 32.3967 54.2998 32.3601 54.5435C32.1643 56.3634 33.8627 57.7377 35.5341 57.9606C36.5088 58.103 37.4935 58.1663 38.4785 58.1496C40.3525 58.1496 51.1575 58.3995 53.2746 58.44L59.1938 58.5616C60.5849 58.5616 62.3036 58.8587 63.168 57.5486C63.9142 56.3466 63.715 54.6515 63.8433 53.284L63.9986 50.3295L64.3127 44.4171C64.4106 43.1239 64.3363 41.1992 62.7189 41.0034C61.8039 40.919 56.3811 40.8143 55.3411 40.7738L43.5028 40.4361C40.5551 40.3551 37.5803 40.2876 34.6764 40.8751C33.39 41.1013 33.2583 41.7294 33.2279 42.928L32.4513 54.7461L32.4547 54.7528Z" fill="#454545"/>
<path d="M55.5036 51.4404C56.6984 51.8312 57.8052 52.4518 58.762 53.2672C59.7431 54.059 60.5569 55.038 61.156 56.1474C60.6562 55.7624 60.1936 55.3606 59.7311 54.9656C58.4311 53.8446 56.8036 52.5682 55.5103 51.4472L55.5036 51.4404Z" fill="white"/>
<path d="M54.8311 50.8293C54.8648 52.3454 54.8615 53.8682 54.8311 55.3776L54.4293 55.2526C54.821 54.5773 55.2329 53.8615 55.0506 53.0646C54.7838 52.0915 54.8565 51.0566 55.2565 50.1304C56.8907 50.7409 58.6423 50.9719 60.3788 50.8057V51.454C58.6036 51.3589 56.8237 51.412 55.0573 51.6127L55.1586 51.221C56.2594 51.9503 56.7659 53.0444 56.05 54.2599C55.8582 54.5869 55.6047 54.8735 55.3038 55.1041C56.0331 54.3815 56.5126 53.0781 55.7394 52.2374C55.3453 51.8638 54.9091 51.5374 54.4394 51.2649C56.4181 50.9745 58.4136 50.6672 60.4295 50.8057V51.454C58.7019 51.6481 56.9528 51.4424 55.3173 50.853L55.7293 50.6672C55.5819 51.0237 55.4974 51.403 55.4794 51.7883C55.4186 52.3859 55.6989 53.041 55.6077 53.6825C55.4726 54.3403 55.1885 54.9583 54.7771 55.489L54.3077 56.1846C54.4495 54.4017 54.5981 52.6088 54.7973 50.8361L54.8311 50.8293Z" fill="white"/>
<path d="M55.8751 52.2539C56.9691 52.3518 57.901 53.1048 58.6405 53.8544C59.4036 54.5297 59.8426 55.5798 60.9129 55.8094C59.7919 56.1471 58.887 54.9923 58.161 54.3271C57.4758 53.5559 56.7094 52.8608 55.8751 52.2539V52.2539Z" fill="white"/>
<path d="M30.9454 63.7651C31.3843 65.1158 33.6736 64.8929 34.8352 65.136C35.9224 65.2643 38.097 65.4737 39.1876 65.5581C46.4568 66.119 53.7634 65.9697 61.0037 65.1124C62.2935 64.974 64.0426 64.7207 65.3459 64.5384C63.9176 64.849 62.4792 65.1191 61.0374 65.3589C53.072 66.6071 44.9699 66.7208 36.9726 65.6965L34.8183 65.3791C33.6365 65.0685 31.3303 65.2002 30.9622 63.7651H30.9454Z" fill="#454545"/>
<defs>
<filter id="filter0_d_426_219" x="3.13699" y="2.63699" width="93.6986" height="109.726" filterUnits="userSpaceOnUse" color-interpolation-filters="sRGB">
<feFlood flood-opacity="0" result="BackgroundImageFix"/>
<feColorMatrix in="SourceAlpha" type="matrix" values="0 0 0 0 0 0 0 0 0 0 0 0 0 0 0 0 0 0 127 0" result="hardAlpha"/>
<feOffset/>
<feGaussianBlur stdDeviation="4.93151"/>
<feComposite in2="hardAlpha" operator="out"/>
<feColorMatrix type="matrix" values="0 0 0 0 0 0 0 0 0 0 0 0 0 0 0 0 0 0 0.05 0"/>
<feBlend mode="normal" in2="BackgroundImageFix" result="effect1_dropShadow_426_219"/>
<feBlend mode="normal" in="SourceGraphic" in2="effect1_dropShadow_426_219" result="shape"/>
</filter>
<filter id="filter1_d_426_219" x="0.671233" y="7.56869" width="98.6301" height="98.6302" filterUnits="userSpaceOnUse" color-interpolation-filters="sRGB">
<feFlood flood-opacity="0" result="BackgroundImageFix"/>
<feColorMatrix in="SourceAlpha" type="matrix" values="0 0 0 0 0 0 0 0 0 0 0 0 0 0 0 0 0 0 127 0" result="hardAlpha"/>
<feOffset/>
<feGaussianBlur stdDeviation="6.16438"/>
<feComposite in2="hardAlpha" operator="out"/>
<feColorMatrix type="matrix" values="0 0 0 0 0 0 0 0 0 0 0 0 0 0 0 0 0 0 0.08 0"/>
<feBlend mode="normal" in2="BackgroundImageFix" result="effect1_dropShadow_426_219"/>
<feBlend mode="normal" in="SourceGraphic" in2="effect1_dropShadow_426_219" result="shape"/>
</filter>
<linearGradient id="paint0_linear_426_219" x1="26.2475" y1="12.38" x2="114.411" y2="58.3844" gradientUnits="userSpaceOnUse">
<stop stop-color="#3CA0D2"/>
<stop offset="1" stop-color="#48DCA6"/>
</linearGradient>
<linearGradient id="paint1_linear_426_219" x1="34.9329" y1="41.3869" x2="59.7917" y2="62.5021" gradientUnits="userSpaceOnUse">
<stop stop-color="#3CA0D2"/>
<stop offset="1" stop-color="#48DCA6"/>
</linearGradient>
<linearGradient id="paint2_linear_426_219" x1="33.1109" y1="62.2396" x2="36.9361" y2="75.5084" gradientUnits="userSpaceOnUse">
<stop stop-color="#3CA0D2"/>
<stop offset="1" stop-color="#48DCA6"/>
</linearGradient>
</defs>
</svg>
