<svg width="45" height="51" viewBox="0 0 45 51" fill="none" xmlns="http://www.w3.org/2000/svg">
<path d="M40.319 49.0416C36.3468 46.3225 31.2769 45.8305 26.6752 45.0826C24.3402 44.6908 21.9783 44.4767 19.662 44.2036C17.3247 43.9758 15.0054 43.5903 12.72 43.0498C14.7313 44.3798 17.0931 45.1144 19.4007 45.6695C21.7082 46.2247 24.0616 46.5967 26.3863 46.9698C31.0972 47.6993 35.7201 47.7206 40.319 49.0416Z" fill="white"/>
<path d="M10.2762 34.2296C16.4075 29.4254 21.6166 23.5617 27.1923 18.1906C32.8019 12.7037 39.1104 7.13389 42.6255 0.000133503L42.277 0.390143C42.1446 0.587836 42.0354 0.800126 41.9516 1.02282C42.1076 0.849969 42.2041 0.617236 42.3762 0.491549L42.268 0.404798C39.8523 3.4285 37.2074 6.26171 34.3566 8.8793C31.5369 11.5421 28.6425 14.1217 25.8484 16.8314C20.2866 22.3213 15.3882 28.3216 10.2762 34.2296Z" fill="white"/>
<path d="M1.72404 28.8852C3.57978 24.8062 3.89816 20.2106 4.25249 15.8143C4.60683 11.4179 4.82419 6.80221 3.51573 2.5051C3.32531 6.29379 2.91656 10.2481 2.50522 14.0019C2.00057 18.9863 2.16158 23.8937 1.72881 28.885L1.72404 28.8852Z" fill="white"/>
</svg>
